<svg xmlns="http://www.w3.org/2000/svg" class="myob-logo" id="myob-logo" aria-label="MYOB Home" viewBox="0 0 283.5 116.4" data-component-info="{&quot;logoAltText&quot;:&quot;MYOB Home&quot;,&quot;logoUrl&quot;:&quot;https://www.myob.com/au&quot;}" data-name="myob-logo">
                <title>MYOB Home</title>
                <defs>
                    <linearGradient id="myob-logo-gradient" gradientUnits="userSpaceOnUse" x1="0" y1="58.2083" x2="283.465" y2="58.2083">
                        <stop stop-color="#6100a5" offset="0.36" />
                        <stop stop-color="#7001a0" offset="0.4557" />
                        <stop stop-color="#980293" offset="0.6409" />
                        <stop stop-color="#d9057e" offset="0.8947" />
                        <stop stop-color="#ed0677" offset="0.97" />
                    </linearGradient>
                </defs>
                <g fill="url(#myob-logo-gradient)">
                    <path d="M 46.8 34.2 c -4.4 -5.3 -11.1 -8.6 -19.4 -8.6 C 10.8 25.5 0 37.3 0 52.7 V 88 h 5.1 c 3.5 -0.2 10.3 -1.9 10.5 -12 V 52.4 c 0 -6.9 4.8 -11.6 11.8 -11.6 c 10.3 0 11.4 8.2 11.4 11.6 V 88 h 5.1 c 3.4 -0.2 10.2 -1.9 10.5 -11.9 V 52.4 c 0 -6.9 5 -11.6 11.8 -11.6 c 10.3 0 11.5 8.2 11.5 11.6 V 88 h 5.1 c 3.5 -0.2 10.4 -1.9 10.5 -12.2 V 52.7 c 0 -16 -10.1 -27.2 -27.1 -27.2 C 58.3 25.5 51.4 28.9 46.8 34.2" />
                    <path d="M 138.3 33.8 l -13.1 36.4 l -14.3 -37.7 c -2.2 -6 -7.8 -5.6 -7.8 -5.6 H 90.9 l 24.2 59.2 c 0 -0.1 0 -0.1 -0.1 -0.2 c 0 0 0 0.1 0.1 0.2 c 0 0.1 0.1 0.2 0.1 0.2 l -0.1 -0.3 c 0.8 2.4 0.6 3.7 -0.2 6.1 l -0.5 1.5 c -2.8 7 -6.8 8.9 -15.2 8.4 v 0.1 l 5.8 14.3 c 10.8 -0.2 19 -3.8 24.4 -17.3 l 29.1 -72.2 l 0 0 l -10.9 0 c 0 0 0 0 0 0 C 147.1 26.9 140.9 27.1 138.3 33.8" />
                    <path d="M 170.1 57.7 c 0 -10.5 6.7 -17.9 15 -17.9 c 8.3 0 15 7.3 15 17.9 c 0 10.3 -6.7 17.4 -15 17.4 C 176.8 75.1 170.1 68 170.1 57.7 M 154.5 57.6 c 0 18.2 13.7 31.8 30.6 31.8 c 16.9 0 30.7 -13.6 30.7 -31.8 c 0 -18.2 -13.8 -32 -30.7 -32 C 168.2 25.5 154.5 39.4 154.5 57.6" />
                    <path d="M 236.6 57.7 c 0 -9.7 7 -17.5 15.6 -17.5 c 8.6 0 15.6 7.6 15.6 17.5 c 0 9.7 -7 17.1 -15.6 17.1 C 243.6 74.9 236.6 67.2 236.6 57.7 M 233.4 0 L 233.4 0 c -10.6 0 -12.3 7.2 -12.5 10.6 V 88 l 7.5 0 c 6 0.1 7.4 -3.7 7.5 -5.9 v -0.3 v -0.3 c 4.7 5 11.2 7.8 18.6 7.8 c 16 0 29 -13.7 29 -31.7 c 0 -18.1 -13 -31.8 -29 -31.8 c -7 0 -13.2 2.6 -17.9 7.1 V 0 H 233.4 Z" />
                </g>
            </svg>